Coordinates
version=1
nRows=8
nColumns=40
inDegrees=yes

Units are S.I. units (second, meters, Newtons, ...)
Angles are in degrees.

endheader
time	pelvis_tilt	pelvis_list	pelvis_rotation	pelvis_tx	pelvis_ty	pelvis_tz	hip_flexion_r	hip_adduction_r	hip_rotation_r	knee_angle_r	knee_angle_r_beta	ankle_angle_r	subtalar_angle_r	mtp_angle_r	hip_flexion_l	hip_adduction_l	hip_rotation_l	knee_angle_l	knee_angle_l_beta	ankle_angle_l	subtalar_angle_l	mtp_angle_l	lumbar_extension	lumbar_bending	lumbar_rotation	arm_flex_r	arm_add_r	arm_rot_r	elbow_flex_r	pro_sup_r	wrist_flex_r	wrist_dev_r	arm_flex_l	arm_add_l	arm_rot_l	elbow_flex_l	pro_sup_l	wrist_flex_l	wrist_dev_l
     18.71750000	     -3.78208262	     -4.54185248	      2.40568735	      1.05506389	      0.91773506	      0.45041499	      2.14051698	     -2.53454865	    -11.93410540	     32.06433633	     32.06433633	     13.31754170	     -7.86540717	    -12.78202968	     28.32558393	     -6.04334624	     -2.12597139	     28.12804299	     28.12804299	      6.90091456	    -15.64455266	      5.38810428	     -9.95713391	      5.16285569	      4.14862056	     38.79956054	    -13.95709308	      6.07290065	    124.87306979	     43.08129907	      0.00000000	      0.00000000	    -12.83880691	     -7.53225387	      2.96373492	     26.38381704	     44.84372773	      0.00000000	      0.00000000
     18.72914286	     -3.80737805	     -4.33449225	      2.19954673	      1.05491628	      0.91917293	      0.44744064	      3.98861980	     -3.39840270	    -11.54306745	     36.07384817	     36.07384817	     11.41687733	     -9.85972193	    -13.26140133	     27.51409811	     -5.75177141	     -2.56290565	     27.81045287	     27.81045287	      7.43311237	    -15.49910446	      5.10008016	     -9.96404030	      4.92111597	      3.87382556	     36.88156770	    -14.04413141	      6.58339985	    124.82990231	     43.06829329	      0.00000000	      0.00000000	    -11.71364216	     -7.54570981	      2.92696315	     26.92779852	     44.87681371	      0.00000000	      0.00000000
     18.74078571	     -3.94948676	     -4.30076494	      2.04296181	      1.05448862	      0.92033396	      0.44474349	      6.13838358	     -3.92526834	    -10.96378587	     40.15907481	     40.15907481	      9.02156741	    -12.62137054	    -13.72086246	     26.82197790	     -5.63062002	     -2.92463247	     27.38137163	     27.38137163	      7.85462469	    -15.31618743	      4.69530866	     -9.79521625	      4.83497556	      3.78012416	     34.72129759	    -14.55093117	      6.92770508	    124.78855719	     43.06862411	      0.00000000	      0.00000000	    -10.52582556	     -7.56090547	      2.83611580	     27.71799559	     44.92377647	      0.00000000	      0.00000000
     18.75242857	     -3.85747300	     -4.05094763	      1.85828246	      1.05398172	      0.92171341	      0.44192929	      8.11266689	     -4.79316101	    -10.58967763	     44.25676200	     44.25676200	      6.71752596	    -14.42311989	    -13.60865158	     25.89668623	     -5.30201842	     -3.36512320	     27.04835982	     27.04835982	      8.27731130	    -15.01017212	      4.34001372	    -10.00529936	      4.58460483	      3.50951493	     32.58952164	    -14.57700048	      7.34809535	    124.34076608	     43.06842437	      0.00000000	      0.00000000	     -9.20448958	     -7.67080911	      2.77133914	     28.45417666	     44.96120079	      0.00000000	      0.00000000
     18.76407143	     -3.97467211	     -4.09792225	      1.67159357	      1.05324591	      0.92259709	      0.43951539	     10.43190907	     -5.13261007	    -10.03502628	     48.27928494	     48.27928494	      4.54181905	    -16.69812970	    -12.23995768	     25.23217824	     -5.31262756	     -3.82076358	     26.67121803	     26.67121803	      8.56236840	    -14.72696193	      3.38978088	     -9.88941299	      4.65411540	      3.68874592	     29.98966002	    -15.34566089	      7.12287260	    123.59466590	     43.12604367	      0.00000000	      0.00000000	     -7.91636312	     -7.84711398	      2.60787426	     30.00721191	     45.02710427	      0.00000000	      0.00000000
     18.77571429	     -3.84294382	     -3.84460181	      1.55100040	      1.05239247	      0.92367588	      0.43695897	     12.50151999	     -6.01116018	     -9.85251087	     52.20620911	     52.20620911	      2.61327021	    -17.61689740	    -11.40832187	     24.29058243	     -4.97917908	     -4.23789600	     26.29181337	     26.29181337	      8.85848771	    -14.32762031	      3.08040365	    -10.19024863	      4.35897734	      3.20178975	     27.81479406	    -15.18161846	      7.53128817	    122.74574948	     43.13742712	      0.00000000	      0.00000000	     -6.55103867	     -8.01418412	      2.57224870	     30.77351131	     45.05865190	      0.00000000	      0.00000000
     18.78735714	     -3.88472823	     -3.81852916	      1.37385256	      1.05136686	      0.92437035	      0.43482029	     15.08082704	     -6.33002357	     -9.23894503	     56.46888386	     56.46888386	      3.38097590	    -17.49145991	     -2.76875961	     23.53128068	     -4.94120765	     -4.74943324	     25.81728507	     25.81728507	      8.70814946	    -14.03762592	      1.31213355	    -10.21291702	      4.29103185	      3.05423736	     25.29793918	    -15.39031220	      7.10389626	    120.91157023	     43.31914412	      0.00000000	      0.00000000	     -5.62440701	     -8.45415686	      3.00273710	     33.23224892	     45.09227205	      0.00000000	      0.00000000
     18.79900000	     -3.81236643	     -3.72576213	      1.24336821	      1.05029087	      0.92509680	      0.43262281	     17.28790852	     -6.79197326	     -8.87447841	     59.93702645	     59.93702645	      2.78695225	    -17.85921444	      0.68989551	     22.74551710	     -4.82130606	     -5.23449510	     25.54131263	     25.54131263	      9.01874324	    -13.55823564	      0.66179358	    -10.36723613	      4.18894435	      2.70255595	     22.97988680	    -15.31016661	      6.82286001	    118.61393706	     43.47676767	      0.00000000	      0.00000000	     -4.31235778	     -8.84244329	      3.38466138	     34.73915258	     45.12758583	      0.00000000	      0.00000000
